inDegrees=no
num_controls=7
num_derivatives=13
num_iterations=146
num_multipliers=7
num_parameters=0
num_slacks=7
num_states=26
objective=0.449517
objective_accelerations=0.047123
objective_balance=0.007381
objective_effort=0.035605
objective_height=0.354447
objective_ligament=0.004962
solver_duration=2164.278813
status=Solve_Succeeded
success=true
DataType=double
version=3
OpenSimVersion=4.5
endheader
time	/jointset/ground_pelvis/pelvis_tilt/value	/jointset/ground_pelvis/pelvis_tx/value	/jointset/ground_pelvis/pelvis_ty/value	/jointset/hip_l/hip_flexion_l/value	/jointset/hip_l/hip_adduction_l/value	/jointset/hip_l/hip_rotation_l/value	/jointset/back/lumbar_extension/value	/jointset/patellofemoral_l/patellar_flexion_l/value	/jointset/knee_l/knee_flexion_l/value	/jointset/knee_l/knee_adduction_l/value	/jointset/knee_l/knee_rotation_l/value	/jointset/ankle_l/ankle_angle_l/value	/jointset/subtalar_l/subtalar_angle_l/value	/jointset/ground_pelvis/pelvis_tilt/speed	/jointset/ground_pelvis/pelvis_tx/speed	/jointset/ground_pelvis/pelvis_ty/speed	/jointset/hip_l/hip_flexion_l/speed	/jointset/hip_l/hip_adduction_l/speed	/jointset/hip_l/hip_rotation_l/speed	/jointset/back/lumbar_extension/speed	/jointset/patellofemoral_l/patellar_flexion_l/speed	/jointset/knee_l/knee_flexion_l/speed	/jointset/knee_l/knee_adduction_l/speed	/jointset/knee_l/knee_rotation_l/speed	/jointset/ankle_l/ankle_angle_l/speed	/jointset/subtalar_l/subtalar_angle_l/speed	/forceset/tau_hip_flexion_l	/forceset/tau_hip_adduction_l	/forceset/tau_hip_rotation_l	/forceset/tau_knee_flexion_l	/forceset/tau_ankle_angle_l	/forceset/tau_subtalar_angle_l	/forceset/tau_lumbar_extension	lambda_cid13_p0	lambda_cid13_p1	lambda_cid13_p2	lambda_cid13_p3	lambda_cid13_p4	lambda_cid13_p5	lambda_cid14_p0	/jointset/ground_pelvis/pelvis_tilt/accel	/jointset/ground_pelvis/pelvis_tx/accel	/jointset/ground_pelvis/pelvis_ty/accel	/jointset/hip_l/hip_flexion_l/accel	/jointset/hip_l/hip_adduction_l/accel	/jointset/hip_l/hip_rotation_l/accel	/jointset/back/lumbar_extension/accel	/jointset/patellofemoral_l/patellar_flexion_l/accel	/jointset/knee_l/knee_flexion_l/accel	/jointset/knee_l/knee_adduction_l/accel	/jointset/knee_l/knee_rotation_l/accel	/jointset/ankle_l/ankle_angle_l/accel	/jointset/subtalar_l/subtalar_angle_l/accel	gamma_cid13_p0	gamma_cid13_p1	gamma_cid13_p2	gamma_cid13_p3	gamma_cid13_p4	gamma_cid13_p5	gamma_cid14_p0
1	-0.6490559968479955	-0.1265645097920558	0.6109587708477887	1.905207180334888	-0.2988035903816908	0.1206236802388342	-0.4363312145235133	1.156105518552663	1.156105518552775	-0.1745285072079972	0.1745318250179052	0.09285974386745281	-0.03176718684715069	-0.01013297768184498	0.0007456367588326242	-0.003132314521905147	0.01603160583865488	0.0006713162836890793	0.003236170444803275	-8.653474113392697e-06	0.008512558368542172	0.008512558368542296	6.729394485121518e-06	1.049587394677924e-06	0.003256692804802534	0.001300222470766176	-0.4360572131157024	0.009265250575372416	-0.01891442918285257	-0.2434592233558288	0.1322344812467644	0.03126399610981677	0.351584882323037	-3.644900721588136	-13.02223090138233	1.767884904827779	7.682682143687237	-725.271204689364	-44.13099626316969	-1.834348343776065	1.898232644787932	0.281090956003453	1.629315224387999	-6.182158870962095	-0.3301005724616399	-1.666193723857017	-0.01640367133078228	-4.552994524640799	-4.552994524640824	-0.04051511668285616	0.01203892695158965	-0.544307038685528	-0.4145962922218072	6.481544009311128e-10	2.896495890466506e-09	-5.436968643772506e-09	8.203080125272329e-11	8.986584917626681e-10	-1.659847273768418e-09	1.233261458027928e-09
1.01	-0.6490631221083402	-0.1265430603188726	0.6110087862930285	1.905059366578287	-0.2988125508882417	0.1205719742369343	-0.4363313151344394	1.155963258947873	1.155963258948058	-0.1745284953559023	0.1745318236828447	0.09286528272909474	-0.03177397375027205	0.008707767055733881	0.003544832079268275	0.01313208605567154	-0.04558681194871178	-0.002461127448467847	-0.01357530281254577	-9.49211967577724e-06	-0.03695914761850793	-0.0369591476185062	-3.427214635803503e-06	-1.364804885144842e-06	-0.002150787127516896	-0.002655483541523699	-0.4359547099336035	0.009306818502297523	-0.018918713662476	-0.2433727999246005	0.1321741514274784	0.03129258760565062	0.3515191879521155	-3.653668951942264	-13.03465761552417	1.771630419108094	7.666568592389496	-725.1269540235267	-44.1499215819702	-1.838465829774571	1.8769712578924	0.2794202080762212	1.624503987395178	-6.150551895181049	-0.3044746634763598	-1.688317528179428	0.008372527648779651	-4.543458019654013	-4.543458019653761	0.01887229125738696	-0.006393442984572006	-0.5392482101013188	-0.3857412228666668	-2.424243825155814e-09	-5.293374420567313e-09	1.882033225643485e-08	1.276896719441648e-09	-4.247601744379977e-09	1.602064373585155e-08	-4.24412079936534e-09
1.02	-0.6488818447473796	-0.1264936016148826	0.6112213460466347	1.9042955949113	-0.2988527675100908	0.1203522148221596	-0.4363313648340609	1.15536644240643	1.155366442406688	-0.1745285574250415	0.1745317958397296	0.09281669084349418	-0.03182025440694312	0.02754754657929376	0.006347482920211255	0.02937654715135089	-0.1071599762383621	-0.005579906775970335	-0.03037451213011822	1.528787471482361e-06	-0.08239882896223452	-0.08239882896223139	-8.054852392815854e-06	-4.252023837148927e-06	-0.007569456643683488	-0.006598528239177262	-0.4358522067515053	0.009348386429222512	-0.01892299814210014	-0.2432863764933724	0.1321138216081922	0.03132117910148436	0.3514534935811932	-3.668816291064059	-13.04617944869471	1.775473970545582	7.669617938825584	-725.0681197228722	-44.14008058332706	-1.855742581364931	1.898039601984135	0.2817820601049186	1.625327328008533	-6.173108171418824	-0.3273676915307524	-1.6637409359017	-0.01403176078883434	-4.546589595976096	-4.546589595976162	-0.03940932241007399	0.01194436161715368	-0.5465449554549608	-0.4120640292945452	-5.561711156089399e-09	-1.345751609465483e-08	4.284910105399864e-08	2.665888257510282e-09	-9.459486039730419e-09	3.34388928233606e-08	-9.669098739543381e-09
1.03	-0.6485121629217439	-0.1264160761672087	0.611596180372621	1.902916455339569	-0.2989240678408573	0.1199646024485197	-0.4363312832829518	1.154315510023924	1.154315510023995	-0.1745286723424553	0.1745317456679944	0.09271382949016121	-0.03190586749926221	0.04638946125060413	0.009160425739178114	0.04557995492027948	-0.1686462421783345	-0.008673337132981993	-0.04713950781949963	1.333155377772941e-05	-0.1277700476820111	-0.1277700476820077	-1.471248634142972e-05	-5.433474174917738e-06	-0.01300702542651109	-0.01051739956434285	-0.4353325263346974	0.009433438572644092	-0.01894893521925073	-0.2431676937635879	0.1321961802772894	0.0313933149392254	0.3511230567612778	-3.614316551374447	-13.09255232070072	1.789151377559848	7.59063094671095	-724.6599186961938	-44.18869441384362	-1.886405793909572	1.877362560468514	0.2814740812871745	1.61629006648908	-6.133132995036224	-0.29931445867589	-1.681623394121003	0.00856881328971641	-4.529744979868159	-4.529744979868095	0.01873298041732486	-0.006113219280969009	-0.5429937136624595	-0.3807996060257203	-8.699842457480603e-09	-2.162139523163066e-08	6.687553789133136e-08	4.056860669251159e-09	-1.467203996833809e-08	5.085446597288893e-08	-1.509354194179065e-08
1.04	-0.6479540429172423	-0.1263103365536462	0.6121327372893275	1.900923103670488	-0.2990260992253719	0.119409591216253	-0.4363311272005916	1.152811394060243	1.152811394060127	-0.1745288484433474	0.174531690917572	0.09255646627420681	-0.03203046948921259	0.06523518235247487	0.01199031609793141	0.06172106529536744	-0.2300023957082979	-0.01172611752557435	-0.06385428385546685	1.643503805797794e-05	-0.1730355451973772	-0.1730355451973736	-2.029154810681884e-05	-5.167761381731224e-06	-0.01846982916797104	-0.01439630776543476	-0.4348128459178897	0.009518490716065675	-0.01897487229640243	-0.2430490110338035	0.1322785389463865	0.03146545077696642	0.3507926199413622	-3.566186376863152	-13.1380623843854	1.802979674639062	7.530595101258024	-724.3369770830971	-44.20911172364016	-1.930751450321484	1.89880088809621	0.2851715680622069	1.612867849240406	-6.147085689417023	-0.3192376986468936	-1.653697005218864	-0.01577161719403172	-4.525445355094017	-4.52544535509406	-0.03919360797342903	0.01223379424334816	-0.5515919471814322	-0.4040714044798137	-1.167268106451681e-08	-2.94645549958785e-08	8.88447993862363e-08	5.430921292200377e-09	-1.963505101957906e-08	6.650353306488201e-08	-2.00567051454764e-08
1.05	-0.6472074590284003	-0.1261761934279663	0.6128303257049008	1.898316989226443	-0.2991584231488431	0.1186877498003523	-0.4363310011929371	1.150855251684423	1.150855251684495	-0.1745291082848749	0.1745316598300492	0.09234431241497497	-0.03219363218152611	0.08408029668804949	0.01484301762659478	0.0777793932949634	-0.2911831587104886	-0.01472666053562263	-0.08050163365530455	6.354971003894258e-06	-0.2181649281740711	-0.218164928174077	-2.935903866383521e-05	-6.591700197755427e-07	-0.02396807773419245	-0.01822436859118139	-0.4338789390034704	0.009649023559848808	-0.01902279341368863	-0.2429075886539564	0.1325083200651617	0.03157641089034527	0.350199933673806	-3.447859428565629	-13.21640039842461	1.826240011766809	7.391156503627955	-723.6757832214373	-44.28532802927024	-1.989297209341262	1.877169822992407	0.2860271083168785	1.599726628559707	-6.097974081676073	-0.288673332727083	-1.668420299393107	0.006012070244648855	-4.502479448977476	-4.502479448978876	0.01857521541155375	-0.005408722056553986	-0.5500102491959217	-0.3704013425891665	-1.464035427485442e-08	-3.729769227972861e-08	1.107497741516904e-07	6.804453421749857e-09	-2.459026385590233e-08	8.209739684257711e-08	-2.50054533492071e-08
1.06	-0.6462724633728614	-0.1260133817543901	0.6136879796711184	1.895100186657166	-0.2993203946485234	0.1177998016200478	-0.4363310483316103	1.148448656542831	1.148448656543092	-0.1745293910943065	0.1745316802057112	0.09207696228251024	-0.03239472106629051	0.1029175356917959	0.01772402567719795	0.09373417542417974	-0.3521400207549183	-0.01765563276740249	-0.09707563673621769	-1.819422782086492e-05	-0.263126098351581	-0.2631260983515963	-2.488512888516525e-05	5.12487577529126e-06	-0.0295090838145512	-0.02198154625561129	-0.4329450320890508	0.009779556403632048	-0.01907071453097463	-0.2427661662741092	0.1327381011839369	0.03168737100372426	0.3496072474062499	-3.335873917625169	-13.29397069571742	1.849769385078807	7.270162567245325	-723.0994392034327	-44.3345430734759	-2.062631125983614	1.897225821730573	0.2908328724501679	1.592158675164477	-6.102305497864823	-0.304923542993211	-1.639027661433959	-0.01866544354816402	-4.491802795257225	-4.491802795257229	-0.03648532790629196	0.01248888512997277	-0.5601434500089015	-0.3898947722164713	-1.764355930558843e-08	-4.465515904410979e-08	1.302333498001512e-07	8.564803453589643e-09	-2.948536913641272e-08	9.543026324178245e-08	-2.944466477596078e-08
1.07	-0.6451491275873822	-0.1258215963156093	0.6147046198310923	1.891274997253798	-0.2995112753957475	0.1167465578983306	-0.4363314238015668	1.145593317551875	1.145593317552071	-0.1745296320734754	0.174531764027689	0.09175394311020092	-0.03263301038803294	0.121748124528363	0.0206398598190727	0.1095721787395384	-0.4128532920347563	-0.02050353233908841	-0.113556942895687	-5.932880496533333e-05	-0.3079105264919849	-0.3079105264920016	-2.045099190537165e-05	1.01027845277402e-05	-0.03510544632551284	-0.02565958489479257	-0.4316819633573377	0.009950767676398898	-0.01914007514913976	-0.2426089621092064	0.1330951236524138	0.03185132883474052	0.3488195703447515	-3.165324603941658	-13.40859461495736	1.883526706529928	7.0796425032705	-722.271892297214	-44.44969601874285	-2.151565440172652	1.875748055763662	0.292980440400913	1.576362540426204	-6.049156374457143	-0.272191229762845	-1.650286171553985	0.00279817896337445	-4.467079987547081	-4.467079987547286	0.01932432778159689	-0.00576428642735596	-0.5609853894009998	-0.3542579172598216	-2.064865432676905e-08	-5.198732418511497e-08	1.495881276232401e-07	1.034572890576402e-08	-3.437727720650754e-08	1.08642863822983e-07	-3.385677318266248e-08
1.08	-0.6438375313853085	-0.1256004481843407	0.6158789883003609	1.886844011451349	-0.2997301287517897	0.1155289802993484	-0.4363322834885381	1.142291070846692	1.142291070846823	-0.174529745402619	0.1745318443227187	0.09137463976522976	-0.03290757999766535	0.1405696190106847	0.02359656417473927	0.125279837283084	-0.4732993005711476	-0.02325015453103686	-0.1299424121891789	-0.0001150376316717463	-0.3525076411969933	-0.3525076411970112	6.448763336808798e-07	4.419486270728841e-06	-0.040765918346923	-0.02923760383360853	-0.4304188946256242	0.01012197894916568	-0.0192094357673032	-0.2424517579443036	0.1334521461208908	0.03201528666575675	0.3480318932832533	-3.001088797477776	-13.52258085873313	1.9177167410074	6.90685684599765	-721.5287897179767	-44.53955588846652	-2.256993122666982	1.895406950881508	0.2990069152085316	1.566089720801853	-6.048852949175433	-0.2846680670457145	-1.61986028823846	-0.02158029346053505	-4.454340108178125	-4.454340108178088	-0.03315298165444131	0.01035664372808078	-0.5729653520986071	-0.3698908321434063	-2.467413878841959e-08	-6.18252096018881e-08	1.648901143561774e-07	1.350064223074858e-08	-3.95542735411295e-08	1.204271395622859e-07	-3.813034220497963e-08
